<svg width="136" height="36" viewBox="0 0 136 36" fill="none" xmlns="http://www.w3.org/2000/svg">
<path d="M21.5694 16.8085C21.5333 12.8987 24.8528 10.9966 25.0046 10.908C23.1246 8.23563 20.2107 7.87049 19.1867 7.84137C16.7394 7.59027 14.3655 9.26917 13.1188 9.26917C11.8473 9.26917 9.9275 7.86564 7.85841 7.90688C5.19585 7.94691 2.70498 9.44992 1.33887 11.7839C-1.48046 16.5428 0.622213 23.5362 3.32335 27.3829C4.67453 29.2668 6.25341 31.3703 8.32 31.2963C10.3418 31.2151 11.097 30.0396 13.5369 30.0396C15.9543 30.0396 16.6635 31.2963 18.7712 31.249C20.941 31.2151 22.3072 29.3566 23.6111 27.4557C25.1725 25.2964 25.7996 23.1699 25.8245 23.0607C25.7735 23.0437 21.6104 21.4946 21.5694 16.8085Z" fill="white"/>
<path d="M17.588 5.31088C18.6754 3.98498 19.4194 2.18113 19.2129 0.350586C17.639 0.418519 15.6707 1.41203 14.5372 2.70882C13.5344 3.85154 12.6386 5.72454 12.87 7.48594C14.638 7.61453 16.4533 6.61616 17.588 5.31088Z" fill="white"/>
<path d="M50.7597 31.0258H47.9341L46.3864 26.2838H41.0065L39.5321 31.0258H36.7812L42.1114 14.882H45.4035L50.7597 31.0258ZM45.9198 24.2944L44.5201 20.0789C44.372 19.6482 44.0946 18.6341 43.6852 17.0377H43.6355C43.4725 17.7243 43.21 18.7384 42.8492 20.0789L41.4743 24.2944H45.9198Z" fill="white"/>
<path d="M64.4669 25.0623C64.4669 27.042 63.9182 28.6069 62.8209 29.7557C61.8379 30.7783 60.6174 31.289 59.1605 31.289C57.5878 31.289 56.4581 30.7383 55.77 29.6368H55.7203V35.7689H53.0677V23.2172C53.0677 21.9725 53.0341 20.6952 52.9694 19.385H55.3022L55.4503 21.2301H55.5001C56.3847 19.8399 57.7271 19.1461 59.5287 19.1461C60.9372 19.1461 62.1129 19.6883 63.0535 20.774C63.9966 21.8609 64.4669 23.2899 64.4669 25.0623ZM61.7645 25.1569C61.7645 24.0239 61.5033 23.0898 60.9782 22.3547C60.4046 21.588 59.6345 21.2047 58.669 21.2047C58.0146 21.2047 57.4198 21.4182 56.8886 21.8391C56.3561 22.2637 56.0077 22.8181 55.8447 23.5047C55.7626 23.8249 55.7215 24.0869 55.7215 24.2932V26.2341C55.7215 27.0808 55.9878 27.7953 56.5203 28.3788C57.0528 28.9623 57.7446 29.2535 58.5956 29.2535C59.5947 29.2535 60.3723 28.8774 60.9284 28.1277C61.4858 27.3768 61.7645 26.387 61.7645 25.1569Z" fill="white"/>
<path d="M78.199 25.0623C78.199 27.042 77.6503 28.6069 76.5517 29.7557C75.5701 30.7783 74.3495 31.289 72.8926 31.289C71.3199 31.289 70.1902 30.7383 69.5034 29.6368H69.4536V35.7689H66.801V23.2172C66.801 21.9725 66.7674 20.6952 66.7027 19.385H69.0356L69.1837 21.2301H69.2334C70.1168 19.8399 71.4593 19.1461 73.2621 19.1461C74.6693 19.1461 75.845 19.6883 76.7881 20.774C77.7275 21.8609 78.199 23.2899 78.199 25.0623ZM75.4967 25.1569C75.4967 24.0239 75.2341 23.0898 74.7091 22.3547C74.1355 21.588 73.3679 21.2047 72.4011 21.2047C71.7454 21.2047 71.152 21.4182 70.6194 21.8391C70.0869 22.2637 69.7398 22.8181 69.5768 23.5047C69.4959 23.8249 69.4536 24.0869 69.4536 24.2932V26.2341C69.4536 27.0808 69.7199 27.7953 70.2499 28.3788C70.7824 28.9611 71.4742 29.2535 72.3277 29.2535C73.3268 29.2535 74.1044 28.8774 74.6606 28.1277C75.218 27.3768 75.4967 26.387 75.4967 25.1569Z" fill="white"/>
<path d="M93.5523 26.4985C93.5523 27.8718 93.0634 28.989 92.0817 29.8515C91.003 30.7941 89.5012 31.2648 87.5715 31.2648C85.7898 31.2648 84.3615 30.9299 83.2803 30.2591L83.8949 28.1035C85.0595 28.7901 86.3373 29.1346 87.7295 29.1346C88.7286 29.1346 89.5062 28.9138 90.0649 28.4747C90.621 28.0355 90.8985 27.446 90.8985 26.7108C90.8985 26.0558 90.6695 25.5038 90.2104 25.0562C89.7538 24.6086 88.9911 24.1925 87.9261 23.8079C85.0271 22.7538 83.5789 21.2095 83.5789 19.1788C83.5789 17.8517 84.0865 16.7636 85.103 15.9168C86.1158 15.0689 87.467 14.6455 89.1566 14.6455C90.6633 14.6455 91.915 14.9015 92.914 15.4122L92.2509 17.5205C91.3177 17.0256 90.2627 16.7781 89.0819 16.7781C88.1488 16.7781 87.4197 17.0025 86.8972 17.4489C86.4555 17.848 86.234 18.3345 86.234 18.9107C86.234 19.5488 86.4866 20.0765 86.9942 20.4914C87.4359 20.8747 88.2384 21.2896 89.403 21.7372C90.8275 22.2964 91.8739 22.9503 92.547 23.7C93.2176 24.4472 93.5523 25.3825 93.5523 26.4985Z" fill="white"/>
<path d="M102.323 21.3259H99.3988V26.9777C99.3988 28.4152 99.9138 29.1334 100.947 29.1334C101.421 29.1334 101.814 29.0933 102.125 29.0133L102.198 30.9772C101.676 31.1677 100.988 31.2635 100.135 31.2635C99.0877 31.2635 98.269 30.9518 97.678 30.3295C97.0895 29.7059 96.7934 28.6602 96.7934 27.1912V21.3235H95.0516V19.3826H96.7934V17.2512L99.3988 16.4845V19.3826H102.323V21.3259Z" fill="white"/>
<path d="M115.515 25.1096C115.515 26.8989 114.99 28.3679 113.942 29.5167C112.843 30.6994 111.385 31.289 109.567 31.289C107.816 31.289 106.421 30.7225 105.381 29.5895C104.341 28.4565 103.821 27.0262 103.821 25.3024C103.821 23.4986 104.356 22.0211 105.429 20.8723C106.501 19.7223 107.946 19.1473 109.764 19.1473C111.516 19.1473 112.926 19.7138 113.989 20.848C115.007 21.9483 115.515 23.3688 115.515 25.1096ZM112.763 25.1933C112.763 24.1197 112.527 23.199 112.051 22.4311C111.495 21.5019 110.7 21.0385 109.67 21.0385C108.603 21.0385 107.793 21.5031 107.237 22.4311C106.761 23.2002 106.525 24.1355 106.525 25.2418C106.525 26.3154 106.761 27.2361 107.237 28.0028C107.811 28.932 108.612 29.3954 109.646 29.3954C110.659 29.3954 111.454 28.9223 112.027 27.9785C112.516 27.1961 112.763 26.2656 112.763 25.1933Z" fill="white"/>
<path d="M124.137 21.6596C123.874 21.6123 123.594 21.588 123.301 21.588C122.368 21.588 121.646 21.9313 121.138 22.6191C120.697 23.2257 120.475 23.9923 120.475 24.9179V31.0258H117.824L117.849 23.051C117.849 21.7093 117.815 20.4877 117.749 19.3862H120.06L120.157 21.6135H120.23C120.51 20.848 120.952 20.2318 121.556 19.7696C122.147 19.3535 122.786 19.1461 123.474 19.1461C123.719 19.1461 123.94 19.163 124.137 19.1934V21.6596Z" fill="white"/>
<path d="M136 24.6547C136 25.1181 135.969 25.5087 135.903 25.8277H127.945C127.977 26.9777 128.361 27.8572 129.1 28.4637C129.771 29.006 130.638 29.2777 131.703 29.2777C132.881 29.2777 133.956 29.0945 134.923 28.727L135.338 30.5223C134.209 31.0027 132.875 31.2417 131.336 31.2417C129.484 31.2417 128.031 30.7104 126.974 29.6489C125.919 28.5875 125.39 27.1621 125.39 25.374C125.39 23.6187 125.881 22.1569 126.865 20.9911C127.896 19.7465 129.288 19.1242 131.04 19.1242C132.76 19.1242 134.063 19.7465 134.948 20.9911C135.648 21.9798 136 23.2026 136 24.6547ZM133.471 23.9838C133.488 23.2171 133.315 22.5548 132.956 21.9956C132.497 21.2762 131.791 20.9171 130.842 20.9171C129.975 20.9171 129.269 21.2677 128.73 21.9713C128.289 22.5305 128.026 23.2014 127.945 23.9826H133.471V23.9838Z" fill="white"/>
<path d="M45.0427 4.9505C45.0427 6.3783 44.6035 7.45309 43.7264 8.17488C42.9139 8.84086 41.7593 9.17446 40.2638 9.17446C39.5223 9.17446 38.8877 9.14292 38.3564 9.07984V1.2785C39.0495 1.16932 39.796 1.11352 40.6022 1.11352C42.0268 1.11352 43.1005 1.41558 43.8247 2.01969C44.6359 2.70266 45.0427 3.67919 45.0427 4.9505ZM43.6679 4.98568C43.6679 4.0601 43.4166 3.35044 42.9139 2.85551C42.4113 2.36178 41.6772 2.11431 40.7105 2.11431C40.2999 2.11431 39.9503 2.141 39.6604 2.1968V8.12757C39.8209 8.15183 40.1145 8.16275 40.5412 8.16275C41.5391 8.16275 42.3092 7.89223 42.8517 7.35119C43.3942 6.81016 43.6679 6.02166 43.6679 4.98568Z" fill="white"/>
<path d="M52.3324 6.19755C52.3324 7.07703 52.0749 7.79761 51.5598 8.3629C51.0198 8.94397 50.3044 9.2339 49.4111 9.2339C48.5501 9.2339 47.8645 8.9561 47.3532 8.39808C46.8431 7.84128 46.588 7.1389 46.588 6.29217C46.588 5.40662 46.8505 4.67998 47.3781 4.1159C47.9056 3.55181 48.6148 3.26917 49.5081 3.26917C50.3691 3.26917 51.0609 3.54696 51.5847 4.10377C52.0823 4.6448 52.3324 5.34354 52.3324 6.19755ZM50.98 6.23879C50.98 5.7111 50.863 5.25862 50.6304 4.88135C50.3566 4.42523 49.9672 4.19717 49.4608 4.19717C48.937 4.19717 48.5389 4.42523 48.2652 4.88135C48.0313 5.25862 47.9155 5.71838 47.9155 6.26184C47.9155 6.78953 48.0325 7.24201 48.2652 7.61928C48.5476 8.0754 48.9408 8.30346 49.4484 8.30346C49.9461 8.30346 50.3367 8.07176 50.6179 7.60715C50.8593 7.22261 50.98 6.76649 50.98 6.23879Z" fill="white"/>
<path d="M62.1067 3.38562L60.2716 9.1041H59.0772L58.317 6.62091C58.1241 6.00103 57.9673 5.38478 57.8454 4.77339H57.8218C57.7085 5.40176 57.5518 6.0168 57.3502 6.62091L56.5427 9.1041H55.3346L53.609 3.38562H54.9489L55.6121 6.10414C55.7726 6.74707 55.9045 7.35968 56.0102 7.93953H56.0339C56.1309 7.46158 56.2914 6.85261 56.5179 6.11627L57.3502 3.38683H58.4128L59.2103 6.05804C59.4031 6.70947 59.5599 7.33663 59.6806 7.94075H59.7167C59.805 7.3524 59.9381 6.72524 60.1148 6.05804L60.8265 3.38683H62.1067V3.38562Z" fill="white"/>
<path d="M68.8664 9.10411H67.5625V5.82878C67.5625 4.81949 67.1693 4.31485 66.3805 4.31485C65.9936 4.31485 65.6813 4.45314 65.4387 4.73094C65.1986 5.00874 65.0766 5.33627 65.0766 5.71111V9.10289H63.7727V5.01965C63.7727 4.51744 63.7566 3.97276 63.7255 3.3832H64.8713L64.9323 4.27725H64.9684C65.1202 3.99945 65.3466 3.77018 65.644 3.587C65.9973 3.3735 66.393 3.26553 66.826 3.26553C67.3734 3.26553 67.8288 3.43779 68.1908 3.78352C68.6412 4.20689 68.8664 4.8389 68.8664 5.67836V9.10411Z" fill="white"/>
<path d="M72.4621 9.10409H71.1595V0.761719H72.4621V9.10409Z" fill="white"/>
<path d="M80.1388 6.19755C80.1388 7.07703 79.8812 7.79761 79.3661 8.3629C78.8262 8.94397 78.1095 9.2339 77.2174 9.2339C76.3552 9.2339 75.6697 8.9561 75.1595 8.39808C74.6494 7.84128 74.3944 7.1389 74.3944 6.29217C74.3944 5.40662 74.6569 4.67998 75.1844 4.1159C75.712 3.55181 76.4212 3.26917 77.3132 3.26917C78.1755 3.26917 78.866 3.54696 79.391 4.10377C79.8887 4.6448 80.1388 5.34354 80.1388 6.19755ZM78.7851 6.23879C78.7851 5.7111 78.6682 5.25862 78.4355 4.88135C78.163 4.42523 77.7723 4.19717 77.2672 4.19717C76.7421 4.19717 76.344 4.42523 76.0715 4.88135C75.8376 5.25862 75.7219 5.71838 75.7219 6.26184C75.7219 6.78953 75.8389 7.24201 76.0715 7.61928C76.354 8.0754 76.7471 8.30346 77.2548 8.30346C77.7524 8.30346 78.1419 8.07176 78.423 7.60715C78.6657 7.22261 78.7851 6.76649 78.7851 6.23879Z" fill="white"/>
<path d="M86.4493 9.1041H85.2785L85.1815 8.44539H85.1454C84.7448 8.97066 84.1737 9.2339 83.4321 9.2339C82.8785 9.2339 82.4306 9.06043 82.0934 8.71591C81.7873 8.40293 81.6343 8.01353 81.6343 7.55135C81.6343 6.85261 81.9329 6.32007 82.5338 5.95129C83.1335 5.58252 83.9771 5.40177 85.0633 5.41026V5.30351C85.0633 4.55018 84.6577 4.17413 83.8452 4.17413C83.2667 4.17413 82.7566 4.31606 82.3161 4.59749L82.0511 3.76289C82.5961 3.43414 83.2692 3.26917 84.063 3.26917C85.5958 3.26917 86.3647 4.05767 86.3647 5.63468V7.74059C86.3647 8.31195 86.3933 8.76686 86.4493 9.1041ZM85.0956 7.1389V6.25699C83.6573 6.23273 82.9382 6.61728 82.9382 7.40942C82.9382 7.70784 83.0203 7.93104 83.1883 8.08025C83.3563 8.22946 83.5703 8.30346 83.8253 8.30346C84.1115 8.30346 84.379 8.21491 84.6228 8.03901C84.8679 7.8619 85.0185 7.63748 85.0745 7.36211C85.0882 7.30024 85.0956 7.22503 85.0956 7.1389Z" fill="white"/>
<path d="M93.8584 9.10409H92.7014L92.6404 8.18579H92.6043C92.2348 8.88453 91.6052 9.23389 90.7206 9.23389C90.0139 9.23389 89.4254 8.96338 88.9588 8.42234C88.4923 7.88131 88.2596 7.17893 88.2596 6.31643C88.2596 5.39085 88.5122 4.64116 89.0198 4.06858C89.5113 3.53483 90.1134 3.26795 90.8301 3.26795C91.6177 3.26795 92.1688 3.52634 92.4824 4.04432H92.5072V0.761719H93.8124V7.56348C93.8124 8.12028 93.8273 8.63342 93.8584 9.10409ZM92.5072 6.69248V5.739C92.5072 5.57402 92.4948 5.44058 92.4712 5.33868C92.3978 5.03299 92.2398 4.77581 91.9996 4.56837C91.757 4.36094 91.4646 4.25661 91.1274 4.25661C90.641 4.25661 90.2603 4.44464 89.9803 4.82191C89.7029 5.19918 89.5623 5.68077 89.5623 6.26912C89.5623 6.83441 89.6954 7.29296 89.9629 7.64597C90.2453 8.02202 90.626 8.21005 91.1026 8.21005C91.5306 8.21005 91.8727 8.05356 92.1328 7.73937C92.3841 7.44945 92.5072 7.10008 92.5072 6.69248Z" fill="white"/>
<path d="M105.01 6.19755C105.01 7.07703 104.753 7.79761 104.237 8.3629C103.697 8.94397 102.983 9.2339 102.089 9.2339C101.229 9.2339 100.543 8.9561 100.031 8.39808C99.5208 7.84128 99.2657 7.1389 99.2657 6.29217C99.2657 5.40662 99.5282 4.67998 100.056 4.1159C100.583 3.55181 101.292 3.26917 102.187 3.26917C103.047 3.26917 103.74 3.54696 104.262 4.10377C104.76 4.6448 105.01 5.34354 105.01 6.19755ZM103.659 6.23879C103.659 5.7111 103.542 5.25862 103.309 4.88135C103.034 4.42523 102.646 4.19717 102.139 4.19717C101.616 4.19717 101.218 4.42523 100.943 4.88135C100.709 5.25862 100.593 5.71838 100.593 6.26184C100.593 6.78953 100.71 7.24201 100.943 7.61928C101.225 8.0754 101.618 8.30346 102.126 8.30346C102.624 8.30346 103.016 8.07176 103.297 7.60715C103.537 7.22261 103.659 6.76649 103.659 6.23879Z" fill="white"/>
<path d="M112.021 9.10411H110.718V5.82878C110.718 4.81949 110.325 4.31485 109.535 4.31485C109.148 4.31485 108.836 4.45314 108.595 4.73094C108.353 5.00874 108.233 5.33627 108.233 5.71111V9.10289H106.927V5.01965C106.927 4.51744 106.912 3.97276 106.881 3.3832H108.026L108.087 4.27725H108.123C108.276 3.99945 108.503 3.77018 108.799 3.587C109.153 3.3735 109.548 3.26553 109.982 3.26553C110.528 3.26553 110.983 3.43779 111.345 3.78352C111.797 4.20689 112.021 4.8389 112.021 5.67836V9.10411Z" fill="white"/>
<path d="M120.796 4.3379H119.361V7.11586C119.361 7.82187 119.616 8.17488 120.121 8.17488C120.355 8.17488 120.549 8.15547 120.702 8.11544L120.735 9.07984C120.478 9.17446 120.139 9.22177 119.723 9.22177C119.208 9.22177 118.807 9.06892 118.517 8.76323C118.226 8.45753 118.082 7.94318 118.082 7.2214V4.3379H117.224V3.38563H118.082V2.33752L119.359 1.96147V3.38441H120.795V4.3379H120.796Z" fill="white"/>
<path d="M127.699 9.10409H126.394V5.85303C126.394 4.82797 126.001 4.31484 125.213 4.31484C124.609 4.31484 124.195 4.61205 123.969 5.20646C123.93 5.3314 123.908 5.48425 123.908 5.66379V9.10288H122.605V0.761719H123.908V4.20809H123.933C124.344 3.58092 124.932 3.26795 125.695 3.26795C126.235 3.26795 126.681 3.44021 127.036 3.78594C127.478 4.21658 127.699 4.85709 127.699 5.70382V9.10409Z" fill="white"/>
<path d="M134.82 5.97433C134.82 6.20239 134.802 6.39406 134.771 6.55055H130.861C130.878 7.11585 131.065 7.54649 131.427 7.84491C131.758 8.11179 132.184 8.24523 132.707 8.24523C133.285 8.24523 133.813 8.15546 134.288 7.97471L134.492 8.85783C133.936 9.09317 133.282 9.21084 132.524 9.21084C131.616 9.21084 130.9 8.95003 130.383 8.4284C129.863 7.90678 129.605 7.20683 129.605 6.32856C129.605 5.46605 129.845 4.74791 130.329 4.17533C130.834 3.56394 131.518 3.25824 132.38 3.25824C133.223 3.25824 133.864 3.56394 134.297 4.17533C134.647 4.66057 134.82 5.26104 134.82 5.97433ZM133.575 5.64559C133.585 5.26832 133.499 4.94321 133.323 4.66906C133.096 4.31605 132.752 4.13894 132.285 4.13894C131.86 4.13894 131.513 4.3112 131.248 4.65693C131.031 4.9323 130.903 5.26104 130.861 5.64559H133.575Z" fill="white"/>
</svg>
