<svg width="148" height="44" viewBox="0 0 148 44" fill="none" xmlns="http://www.w3.org/2000/svg">
<g filter="url(#filter0_d_4632_11293)">
<rect x="4" width="140" height="36" rx="4" fill="#6366F1" shape-rendering="crispEdges"/>
<path fill-rule="evenodd" clip-rule="evenodd" d="M29.25 14.25C29.25 12.1823 30.9323 10.5 33 10.5C35.0677 10.5 36.75 12.1823 36.75 14.25C36.75 16.3177 35.0677 18 33 18C30.9323 18 29.25 16.3177 29.25 14.25ZM33 16.5C31.7574 16.5 30.75 15.4926 30.75 14.25C30.75 13.0074 31.7574 12 33 12C34.2426 12 35.25 13.0074 35.25 14.25C35.25 15.4926 34.2426 16.5 33 16.5Z" fill="white"/>
<path d="M39.75 24V24.75H38.25V24C38.25 21.9323 36.5677 20.25 34.5 20.25H31.5C29.4323 20.25 27.75 21.9323 27.75 24V24.75H26.25V24C26.25 21.1058 28.605 18.75 31.5 18.75H34.5C37.3942 18.75 39.75 21.1058 39.75 24Z" fill="white"/>
<path d="M54.8567 23.21C54.1333 23.21 53.48 23.0863 52.8967 22.839C52.318 22.587 51.8397 22.23 51.4617 21.768C51.0883 21.3013 50.8457 20.7483 50.7337 20.109L52.2597 19.878C52.4137 20.494 52.7357 20.9747 53.2257 21.32C53.7157 21.6607 54.2873 21.831 54.9407 21.831C55.3467 21.831 55.72 21.768 56.0607 21.642C56.4013 21.5113 56.6743 21.327 56.8797 21.089C57.0897 20.8463 57.1947 20.557 57.1947 20.221C57.1947 20.039 57.162 19.878 57.0967 19.738C57.036 19.598 56.9497 19.4767 56.8377 19.374C56.7303 19.2667 56.5973 19.1757 56.4387 19.101C56.2847 19.0217 56.1143 18.954 55.9277 18.898L53.3447 18.135C53.0927 18.0603 52.836 17.9647 52.5747 17.848C52.3133 17.7267 52.073 17.5703 51.8537 17.379C51.639 17.183 51.464 16.9427 51.3287 16.658C51.1933 16.3687 51.1257 16.0187 51.1257 15.608C51.1257 14.9873 51.2843 14.4623 51.6017 14.033C51.9237 13.599 52.3577 13.2723 52.9037 13.053C53.4497 12.829 54.061 12.717 54.7377 12.717C55.419 12.7263 56.028 12.8477 56.5647 13.081C57.106 13.3143 57.554 13.6503 57.9087 14.089C58.268 14.523 58.5153 15.0503 58.6507 15.671L57.0827 15.937C57.0127 15.559 56.8633 15.2347 56.6347 14.964C56.406 14.6887 56.126 14.4787 55.7947 14.334C55.4633 14.1847 55.104 14.1077 54.7167 14.103C54.3433 14.0937 54.0003 14.1497 53.6877 14.271C53.3797 14.3923 53.1323 14.5627 52.9457 14.782C52.7637 15.0013 52.6727 15.2533 52.6727 15.538C52.6727 15.818 52.7543 16.0443 52.9177 16.217C53.081 16.3897 53.2817 16.5273 53.5197 16.63C53.7623 16.728 54.0027 16.8097 54.2407 16.875L56.1027 17.4C56.336 17.4653 56.5997 17.554 56.8937 17.666C57.1923 17.7733 57.4793 17.925 57.7547 18.121C58.0347 18.317 58.2657 18.5783 58.4477 18.905C58.6297 19.227 58.7207 19.633 58.7207 20.123C58.7207 20.6317 58.618 21.0797 58.4127 21.467C58.2073 21.8497 57.925 22.1717 57.5657 22.433C57.211 22.6897 56.8003 22.8833 56.3337 23.014C55.867 23.1447 55.3747 23.21 54.8567 23.21ZM60.3524 14.201V12.78H61.8154V14.201H60.3524ZM60.3524 23V15.44H61.8154V23H60.3524ZM67.0325 26.57C66.6265 26.57 66.2322 26.507 65.8495 26.381C65.4715 26.255 65.1262 26.0683 64.8135 25.821C64.5008 25.5783 64.2418 25.2773 64.0365 24.918L65.3875 24.232C65.5508 24.554 65.7842 24.7897 66.0875 24.939C66.3908 25.0883 66.7105 25.163 67.0465 25.163C67.4618 25.163 67.8165 25.0883 68.1105 24.939C68.4045 24.7943 68.6262 24.575 68.7755 24.281C68.9295 23.987 69.0042 23.623 68.9995 23.189V21.075H69.1745V15.44H70.4695V23.203C70.4695 23.4037 70.4625 23.595 70.4485 23.777C70.4345 23.959 70.4088 24.141 70.3715 24.323C70.2642 24.8317 70.0588 25.2517 69.7555 25.583C69.4568 25.9143 69.0742 26.1617 68.6075 26.325C68.1455 26.4883 67.6205 26.57 67.0325 26.57ZM66.9205 23.21C66.2158 23.21 65.6068 23.035 65.0935 22.685C64.5848 22.335 64.1905 21.859 63.9105 21.257C63.6352 20.6503 63.4975 19.969 63.4975 19.213C63.4975 18.4523 63.6375 17.7733 63.9175 17.176C64.1975 16.574 64.5942 16.1003 65.1075 15.755C65.6255 15.405 66.2392 15.23 66.9485 15.23C67.6625 15.23 68.2622 15.405 68.7475 15.755C69.2375 16.1003 69.6062 16.574 69.8535 17.176C70.1055 17.778 70.2315 18.457 70.2315 19.213C70.2315 19.969 70.1055 20.648 69.8535 21.25C69.6015 21.852 69.2305 22.3303 68.7405 22.685C68.2505 23.035 67.6438 23.21 66.9205 23.21ZM67.1235 21.887C67.6042 21.887 67.9962 21.7727 68.2995 21.544C68.6028 21.3153 68.8245 21.0003 68.9645 20.599C69.1045 20.1977 69.1745 19.7357 69.1745 19.213C69.1745 18.6903 69.1022 18.2283 68.9575 17.827C68.8175 17.4257 68.5982 17.113 68.2995 16.889C68.0055 16.665 67.6298 16.553 67.1725 16.553C66.6872 16.553 66.2882 16.672 65.9755 16.91C65.6628 17.148 65.4295 17.4677 65.2755 17.869C65.1262 18.2703 65.0515 18.7183 65.0515 19.213C65.0515 19.7123 65.1262 20.165 65.2755 20.571C65.4295 20.9723 65.6582 21.292 65.9615 21.53C66.2695 21.768 66.6568 21.887 67.1235 21.887ZM77.7411 23V19.283C77.7411 18.989 77.7154 18.688 77.6641 18.38C77.6174 18.0673 77.5241 17.778 77.3841 17.512C77.2487 17.246 77.0551 17.0313 76.8031 16.868C76.5557 16.7047 76.2314 16.623 75.8301 16.623C75.5687 16.623 75.3214 16.6673 75.0881 16.756C74.8547 16.84 74.6494 16.9777 74.4721 17.169C74.2994 17.3603 74.1617 17.6123 74.0591 17.925C73.9611 18.2377 73.9121 18.618 73.9121 19.066L73.0021 18.723C73.0021 18.037 73.1304 17.4327 73.3871 16.91C73.6437 16.3827 74.0124 15.972 74.4931 15.678C74.9737 15.384 75.5547 15.237 76.2361 15.237C76.7587 15.237 77.1974 15.321 77.5521 15.489C77.9067 15.657 78.1937 15.8787 78.4131 16.154C78.6371 16.4247 78.8074 16.721 78.9241 17.043C79.0407 17.365 79.1201 17.68 79.1621 17.988C79.2041 18.296 79.2251 18.5667 79.2251 18.8V23H77.7411ZM72.4281 23V15.44H73.7371V17.624H73.9121V23H72.4281ZM83.9911 14.201V12.78H85.4541V14.201H83.9911ZM83.9911 23V15.44H85.4541V23H83.9911ZM92.8622 23V19.283C92.8622 18.989 92.8365 18.688 92.7852 18.38C92.7385 18.0673 92.6452 17.778 92.5052 17.512C92.3698 17.246 92.1762 17.0313 91.9242 16.868C91.6768 16.7047 91.3525 16.623 90.9512 16.623C90.6898 16.623 90.4425 16.6673 90.2092 16.756C89.9758 16.84 89.7705 16.9777 89.5932 17.169C89.4205 17.3603 89.2828 17.6123 89.1802 17.925C89.0822 18.2377 89.0332 18.618 89.0332 19.066L88.1232 18.723C88.1232 18.037 88.2515 17.4327 88.5082 16.91C88.7648 16.3827 89.1335 15.972 89.6142 15.678C90.0948 15.384 90.6758 15.237 91.3572 15.237C91.8798 15.237 92.3185 15.321 92.6732 15.489C93.0278 15.657 93.3148 15.8787 93.5342 16.154C93.7582 16.4247 93.9285 16.721 94.0452 17.043C94.1618 17.365 94.2412 17.68 94.2832 17.988C94.3252 18.296 94.3462 18.5667 94.3462 18.8V23H92.8622ZM87.5492 23V15.44H88.8582V17.624H89.0332V23H87.5492ZM101.52 12.92H102.997L100.309 23H98.8322L101.52 12.92ZM110.475 23.203C109.953 23.203 109.514 23.119 109.159 22.951C108.805 22.783 108.515 22.5637 108.291 22.293C108.072 22.0177 107.904 21.719 107.787 21.397C107.671 21.075 107.591 20.76 107.549 20.452C107.507 20.144 107.486 19.8733 107.486 19.64V15.44H108.97V19.157C108.97 19.451 108.994 19.7543 109.04 20.067C109.092 20.375 109.185 20.662 109.32 20.928C109.46 21.194 109.654 21.4087 109.901 21.572C110.153 21.7353 110.48 21.817 110.881 21.817C111.143 21.817 111.39 21.775 111.623 21.691C111.857 21.6023 112.06 21.4623 112.232 21.271C112.41 21.0797 112.547 20.8277 112.645 20.515C112.748 20.2023 112.799 19.822 112.799 19.374L113.709 19.717C113.709 20.403 113.581 21.0097 113.324 21.537C113.068 22.0597 112.699 22.468 112.218 22.762C111.738 23.056 111.157 23.203 110.475 23.203ZM112.974 23V20.816H112.799V15.44H114.276V23H112.974ZM119.789 23.21C119.065 23.21 118.459 23.035 117.969 22.685C117.479 22.3303 117.108 21.852 116.856 21.25C116.604 20.648 116.478 19.969 116.478 19.213C116.478 18.457 116.601 17.778 116.849 17.176C117.101 16.574 117.469 16.1003 117.955 15.755C118.445 15.405 119.047 15.23 119.761 15.23C120.47 15.23 121.081 15.405 121.595 15.755C122.113 16.1003 122.512 16.574 122.792 17.176C123.072 17.7733 123.212 18.4523 123.212 19.213C123.212 19.969 123.072 20.6503 122.792 21.257C122.516 21.859 122.122 22.335 121.609 22.685C121.1 23.035 120.493 23.21 119.789 23.21ZM116.233 26.36V15.44H117.535V20.879H117.703V26.36H116.233ZM119.586 21.887C120.052 21.887 120.437 21.768 120.741 21.53C121.049 21.292 121.277 20.9723 121.427 20.571C121.581 20.165 121.658 19.7123 121.658 19.213C121.658 18.7183 121.581 18.2703 121.427 17.869C121.277 17.4677 121.046 17.148 120.734 16.91C120.421 16.672 120.022 16.553 119.537 16.553C119.079 16.553 118.701 16.665 118.403 16.889C118.109 17.113 117.889 17.4257 117.745 17.827C117.605 18.2283 117.535 18.6903 117.535 19.213C117.535 19.7357 117.605 20.1977 117.745 20.599C117.885 21.0003 118.106 21.3153 118.41 21.544C118.713 21.7727 119.105 21.887 119.586 21.887Z" fill="white"/>
</g>
<defs>
<filter id="filter0_d_4632_11293" x="0" y="0" width="148" height="44" filterUnits="userSpaceOnUse" color-interpolation-filters="sRGB">
<feFlood flood-opacity="0" result="BackgroundImageFix"/>
<feColorMatrix in="SourceAlpha" type="matrix" values="0 0 0 0 0 0 0 0 0 0 0 0 0 0 0 0 0 0 127 0" result="hardAlpha"/>
<feOffset dy="4"/>
<feGaussianBlur stdDeviation="2"/>
<feComposite in2="hardAlpha" operator="out"/>
<feColorMatrix type="matrix" values="0 0 0 0 0 0 0 0 0 0 0 0 0 0 0 0 0 0 0.25 0"/>
<feBlend mode="normal" in2="BackgroundImageFix" result="effect1_dropShadow_4632_11293"/>
<feBlend mode="normal" in="SourceGraphic" in2="effect1_dropShadow_4632_11293" result="shape"/>
</filter>
</defs>
</svg>
