<svg width="196" height="100" viewBox="0 0 196 100" fill="none" xmlns="http://www.w3.org/2000/svg">
<rect x="0.5" y="0.5" width="195" height="99" rx="7.5" fill="white"/>
<rect x="0.5" y="0.5" width="195" height="99" rx="7.5" stroke="#E2E5F1"/>
<path d="M41.9414 62.8248H67.5914V37.1748H41.9414V62.8248ZM62.6544 47.5318H57.2344V42.1118H62.6544V47.5318ZM46.8774 42.1118H52.3004V52.4678H62.6544V57.8878H46.8774V42.1118ZM84.2944 37.1748C81.7578 37.1748 79.2782 37.927 77.1692 39.3362C75.0601 40.7454 73.4163 42.7484 72.4456 45.0919C71.4749 47.4354 71.221 50.014 71.7158 52.5018C72.2107 54.9896 73.4321 57.2748 75.2257 59.0684C77.0193 60.8621 79.3045 62.0835 81.7923 62.5784C84.2802 63.0732 86.8588 62.8193 89.2023 61.8486C91.5458 60.8779 93.5487 59.2341 94.958 57.125C96.3672 55.0159 97.1194 52.5363 97.1194 49.9998C97.1154 46.5996 95.7629 43.3398 93.3586 40.9356C90.9543 38.5313 87.6946 37.1788 84.2944 37.1748ZM84.2944 57.8878C82.7343 57.8878 81.2092 57.4252 79.912 56.5584C78.6149 55.6917 77.6038 54.4598 77.0068 53.0184C76.4098 51.5771 76.2536 49.9911 76.5579 48.4609C76.8623 46.9308 77.6136 45.5253 78.7167 44.4221C79.8199 43.319 81.2254 42.5677 82.7555 42.2634C84.2856 41.959 85.8716 42.1152 87.313 42.7122C88.7543 43.3093 89.9863 44.3203 90.853 45.6175C91.7198 46.9146 92.1824 48.4397 92.1824 49.9998C92.1792 52.0909 91.3471 54.0954 89.8685 55.574C88.3899 57.0526 86.3854 57.8846 84.2944 57.8878ZM143.013 37.1748C140.476 37.1746 137.997 37.9266 135.888 39.3357C133.779 40.7448 132.135 42.7478 131.164 45.0912C130.193 47.4346 129.939 50.0134 130.434 52.5012C130.928 54.9891 132.15 57.2744 133.943 59.0681C135.737 60.8618 138.022 62.0834 140.51 62.5783C142.997 63.0732 145.576 62.8193 147.92 61.8487C150.263 60.878 152.266 59.2342 153.675 57.1251C155.085 55.016 155.837 52.5364 155.837 49.9998C155.833 46.5998 154.481 43.3402 152.077 40.9359C149.673 38.5316 146.413 37.179 143.013 37.1748ZM143.013 57.8878C141.453 57.888 139.928 57.4255 138.631 56.5589C137.334 55.6923 136.322 54.4604 135.725 53.0191C135.128 51.5778 134.972 49.9917 135.276 48.4615C135.58 46.9314 136.331 45.5258 137.434 44.4225C138.538 43.3192 139.943 42.5679 141.473 42.2634C143.003 41.959 144.589 42.1152 146.03 42.7122C147.472 43.3091 148.704 44.3202 149.571 45.6174C150.437 46.9146 150.9 48.4397 150.9 49.9998C150.897 52.0907 150.065 54.095 148.586 55.5736C147.108 57.0522 145.104 57.8844 143.013 57.8878ZM113.653 37.1748C111.117 37.1748 108.637 37.927 106.528 39.3362C104.419 40.7454 102.775 42.7484 101.805 45.0919C100.834 47.4354 100.58 50.014 101.075 52.5018C101.57 54.9896 102.791 57.2748 104.585 59.0684C106.378 60.8621 108.664 62.0835 111.151 62.5784C113.639 63.0732 116.218 62.8193 118.561 61.8486C120.905 60.8779 122.908 59.2341 124.317 57.125C125.726 55.0159 126.478 52.5363 126.478 49.9998C126.474 46.5996 125.122 43.3398 122.718 40.9356C120.313 38.5313 117.054 37.1788 113.653 37.1748ZM113.653 57.8878C112.2 57.8885 110.774 57.4876 109.534 56.7293C108.294 55.971 107.288 54.8849 106.626 53.5907C105.965 52.2965 105.673 50.8446 105.785 49.3954C105.896 47.9461 106.406 46.5558 107.257 45.3779C108.109 44.2001 109.27 43.2804 110.611 42.7205C111.952 42.1606 113.422 41.9822 114.859 42.205C116.295 42.4279 117.642 43.0432 118.751 43.9832C119.859 44.9232 120.687 46.1513 121.141 47.5318H113.653V52.4678H121.141C120.621 54.0431 119.617 55.4145 118.273 56.3873C116.929 57.3602 115.313 57.8851 113.653 57.8878Z" fill="#B4B7C9"/>
</svg>
