<svg width="196" height="100" viewBox="0 0 196 100" fill="none" xmlns="http://www.w3.org/2000/svg">
<rect x="0.5" y="0.5" width="195" height="99" rx="7.5" fill="white"/>
<rect x="0.5" y="0.5" width="195" height="99" rx="7.5" stroke="#E2E5F1"/>
<path d="M72.8701 44.0697H75.8701V56.1997H72.8701V44.0697ZM77.0601 51.6197C77.0601 48.6197 78.9001 46.8297 81.7401 46.8297C84.5801 46.8297 86.4201 48.6197 86.4201 51.6197C86.4201 54.6197 84.6201 56.4197 81.7401 56.4197C78.8601 56.4197 77.0601 54.6697 77.0601 51.6197ZM83.4101 51.6197C83.4101 49.9697 82.7601 48.9997 81.7401 48.9997C80.7201 48.9997 80.0801 49.9997 80.0801 51.6197C80.0801 53.2397 80.7101 54.2197 81.7401 54.2197C82.7701 54.2197 83.4101 53.2997 83.4101 51.6297V51.6197ZM87.5501 56.7897H90.4301C90.5672 57.0942 90.7989 57.3463 91.0908 57.5085C91.3827 57.6706 91.7192 57.7342 92.0501 57.6897C93.1901 57.6897 93.7901 57.0697 93.7901 56.1697V54.4897H93.7301C93.4911 55.0046 93.1032 55.436 92.6166 55.7284C92.13 56.0207 91.5669 56.1605 91.0001 56.1297C88.8101 56.1297 87.3601 54.4597 87.3601 51.5897C87.3601 48.7197 88.7401 46.9097 91.0401 46.9097C91.6247 46.8868 92.2023 47.0431 92.6956 47.3576C93.1889 47.6722 93.5743 48.13 93.8001 48.6697V46.9997H96.8001V56.0997C96.8001 58.2897 94.8701 59.6497 92.0201 59.6497C89.3701 59.6497 87.7201 58.4597 87.5501 56.7997V56.7897ZM93.8001 51.6097C93.8001 50.1497 93.1301 49.2297 92.0701 49.2297C91.0101 49.2297 90.3601 50.1397 90.3601 51.6097C90.3601 53.0797 91.0001 53.9097 92.0701 53.9097C93.1401 53.9097 93.8001 53.0997 93.8001 51.6197V51.6097ZM97.9301 51.6097C97.9301 48.6097 99.7701 46.8197 102.61 46.8197C105.45 46.8197 107.3 48.6097 107.3 51.6097C107.3 54.6097 105.5 56.4097 102.61 56.4097C99.7201 56.4097 97.9301 54.6697 97.9301 51.6197V51.6097ZM104.28 51.6097C104.28 49.9597 103.63 48.9897 102.61 48.9897C101.59 48.9897 101 49.9997 101 51.6297C101 53.2597 101.63 54.2297 102.65 54.2297C103.67 54.2297 104.28 53.2997 104.28 51.6297V51.6097ZM108.44 44.8197C108.432 44.5168 108.515 44.2184 108.676 43.9623C108.838 43.7062 109.073 43.504 109.35 43.3812C109.627 43.2584 109.934 43.2207 110.232 43.2727C110.531 43.3248 110.807 43.4643 111.026 43.6736C111.246 43.8829 111.398 44.1525 111.463 44.4483C111.529 44.7441 111.505 45.0527 111.395 45.3351C111.285 45.6174 111.094 45.8608 110.846 46.0343C110.597 46.2078 110.303 46.3037 110 46.3097C109.799 46.3235 109.598 46.2956 109.408 46.2278C109.219 46.16 109.045 46.0538 108.899 45.9157C108.752 45.7777 108.636 45.6108 108.557 45.4256C108.478 45.2405 108.438 45.041 108.44 44.8397V44.8197ZM108.44 47.0197H111.44V56.1997H108.44V47.0197ZM122.33 51.6097C122.33 54.6097 121 56.3197 118.72 56.3197C118.136 56.3572 117.553 56.2143 117.053 55.9103C116.552 55.6062 116.157 55.1557 115.92 54.6197H115.86V59.1397H112.86V46.9997H115.86V48.6397H115.92C116.146 48.0948 116.533 47.6326 117.031 47.3159C117.528 46.9992 118.111 46.8434 118.7 46.8697C121 46.9097 122.37 48.6297 122.37 51.6297L122.33 51.6097ZM119.33 51.6097C119.33 50.1497 118.66 49.2197 117.61 49.2197C116.56 49.2197 115.89 50.1597 115.88 51.6097C115.87 53.0597 116.56 53.9897 117.61 53.9897C118.66 53.9897 119.33 53.0797 119.33 51.6297V51.6097ZM127.48 46.8097C129.97 46.8097 131.48 47.9897 131.55 49.8797H128.82C128.82 49.2297 128.28 48.8197 127.45 48.8197C126.62 48.8197 126.25 49.1397 126.25 49.6097C126.25 50.0797 126.58 50.2297 127.25 50.3697L129.17 50.7597C131 51.1497 131.78 51.8897 131.78 53.2797C131.78 55.1797 130.05 56.3997 127.5 56.3997C124.95 56.3997 123.28 55.1797 123.15 53.3097H126.04C126.13 53.9897 126.67 54.3897 127.55 54.3897C128.43 54.3897 128.83 54.0997 128.83 53.6197C128.83 53.1397 128.55 53.0397 127.83 52.8897L126.1 52.5197C124.31 52.1497 123.37 51.1997 123.37 49.7997C123.39 47.9997 125 46.8297 127.48 46.8297V46.8097ZM141.79 56.1797H138.9V54.4697H138.84C138.681 55.0438 138.331 55.5463 137.847 55.8938C137.363 56.2412 136.775 56.4127 136.18 56.3797C135.724 56.4056 135.268 56.3334 134.843 56.1679C134.417 56.0024 134.032 55.7476 133.714 55.4205C133.395 55.0935 133.151 54.7018 132.997 54.2721C132.842 53.8424 132.782 53.3846 132.82 52.9297V46.9997H135.82V52.2397C135.82 53.3297 136.38 53.9097 137.31 53.9097C137.528 53.9101 137.744 53.864 137.943 53.7743C138.141 53.6846 138.319 53.5534 138.463 53.3896C138.606 53.2257 138.714 53.033 138.777 52.8244C138.84 52.6157 138.859 52.3959 138.83 52.1797V46.9997H141.83L141.79 56.1797ZM143.24 46.9997H146.14V48.7697H146.2C146.359 48.2032 146.702 47.7054 147.174 47.3544C147.646 47.0034 148.222 46.8188 148.81 46.8297C149.409 46.7818 150.003 46.9609 150.476 47.3315C150.948 47.7021 151.264 48.2369 151.36 48.8297H151.42C151.601 48.2306 151.977 47.709 152.488 47.3469C152.998 46.9848 153.615 46.8028 154.24 46.8297C154.648 46.816 155.054 46.8883 155.432 47.0419C155.811 47.1954 156.152 47.4269 156.435 47.7211C156.718 48.0154 156.936 48.3659 157.075 48.7498C157.213 49.1337 157.27 49.5426 157.24 49.9497V56.1997H154.24V50.7497C154.24 49.7497 153.79 49.2897 152.95 49.2897C152.763 49.2881 152.577 49.3267 152.406 49.4029C152.235 49.4791 152.082 49.5911 151.958 49.7314C151.834 49.8717 151.741 50.0369 151.686 50.216C151.631 50.3952 151.616 50.584 151.64 50.7697V56.1997H148.79V50.7097C148.79 49.7897 148.34 49.2897 147.52 49.2897C147.331 49.2898 147.143 49.33 146.971 49.4077C146.798 49.4855 146.643 49.599 146.518 49.7407C146.392 49.8824 146.298 50.0492 146.241 50.2301C146.185 50.4109 146.167 50.6016 146.19 50.7897V56.1997H143.19L143.24 46.9997Z" fill="#B4B7C9"/>
<path d="M64.4796 44.6199C63.9707 43.4563 63.2972 42.3718 62.4796 41.3999C61.2711 39.9202 59.7629 38.7133 58.0543 37.8585C56.3457 37.0037 54.4754 36.5205 52.5666 36.4406C50.6578 36.3606 48.7537 36.6859 46.9796 37.3949C45.2056 38.1039 43.6018 39.1805 42.2738 40.554C40.9458 41.9275 39.9238 43.5666 39.2749 45.3636C38.6261 47.1605 38.3651 49.0745 38.5093 50.9795C38.6534 52.8846 39.1994 54.7375 40.1112 56.4163C41.023 58.0952 42.2801 59.5619 43.7996 60.7199C44.7746 61.4778 45.852 62.0939 46.9996 62.5499C48.6086 63.2093 50.3307 63.5489 52.0696 63.5499C55.659 63.542 59.0988 62.1112 61.6351 59.5712C64.1713 57.0312 65.597 53.5893 65.5996 49.9999C65.6022 48.1484 65.2209 46.3165 64.4796 44.6199ZM52.0596 39.1899C53.6212 39.1897 55.1639 39.531 56.5796 40.1899C56.2344 40.3391 55.8714 40.4432 55.4996 40.4999C54.2762 40.677 53.1429 41.245 52.2688 42.1191C51.3947 42.9932 50.8267 44.1265 50.6496 45.3499C50.5719 46.036 50.2598 46.6743 49.7661 47.1571C49.2724 47.6399 48.6273 47.9375 47.9396 47.9999C46.7162 48.177 45.5829 48.745 44.7088 49.6191C43.8347 50.4932 43.2667 51.6265 43.0896 52.8499C43.0297 53.5023 42.7513 54.1154 42.2996 54.5899C41.5203 52.9432 41.1702 51.126 41.2819 49.3076C41.3936 47.4892 41.9635 45.7286 42.9386 44.1896C43.9136 42.6507 45.2622 41.3834 46.8587 40.5057C48.4552 39.6281 50.2478 39.1685 52.0696 39.1699L52.0596 39.1899ZM43.7896 56.9999C43.9096 56.8899 44.0296 56.7899 44.1496 56.6699C45.0393 55.8074 45.6103 54.6688 45.7696 53.4399C45.8342 52.7491 46.1426 52.1039 46.6396 51.6199C47.1179 51.1221 47.7616 50.8162 48.4496 50.7599C49.673 50.5828 50.8063 50.0148 51.6804 49.1407C52.5545 48.2666 53.1225 47.1333 53.2996 45.9099C53.3429 45.1874 53.6529 44.5067 54.1696 43.9999C54.6597 43.5117 55.3095 43.217 55.9996 43.1699C57.1235 43.0153 58.1717 42.5156 58.9996 41.7399C59.9423 42.522 60.7409 43.4628 61.3596 44.5199C61.3216 44.5712 61.278 44.6182 61.2296 44.6599C60.7523 45.1621 60.1094 45.4747 59.4196 45.5399C58.1949 45.7139 57.0599 46.2809 56.1852 47.1555C55.3106 48.0302 54.7436 49.1652 54.5696 50.3899C54.4991 51.0783 54.1928 51.7212 53.7026 52.2096C53.2123 52.6981 52.5683 53.002 51.8796 53.0699C50.6526 53.2456 49.5151 53.8125 48.6359 54.6862C47.7568 55.56 47.1829 56.694 46.9996 57.9199C46.9458 58.4086 46.7779 58.8779 46.5096 59.2899C45.4836 58.6807 44.5647 57.9071 43.7896 56.9999ZM52.0596 60.8599C51.0449 60.861 50.035 60.7196 49.0596 60.4399C49.3933 59.8179 49.6102 59.14 49.6996 58.4399C49.7697 57.753 50.0746 57.1113 50.5628 56.6231C51.051 56.1349 51.6927 55.83 52.3796 55.7599C53.6048 55.5848 54.7404 55.0177 55.6165 54.1434C56.4925 53.2692 57.062 52.1347 57.2396 50.9099C57.3097 50.223 57.6146 49.5813 58.1028 49.0931C58.591 48.6049 59.2327 48.3 59.9196 48.2299C60.8416 48.11 61.7204 47.7667 62.4796 47.2299C62.9012 48.8278 62.9511 50.501 62.6256 52.1212C62.3001 53.7414 61.6077 55.2656 60.6017 56.5767C59.5957 57.8877 58.3028 58.951 56.822 59.6848C55.3413 60.4186 53.7122 60.8035 52.0596 60.8099V60.8599Z" fill="#B4B7C9"/>
</svg>
