<svg width="204" height="108" viewBox="0 0 204 108" fill="none" xmlns="http://www.w3.org/2000/svg">
<g filter="url(#filter0_d_4632_11192)">
<rect x="4" width="196" height="100" rx="8" fill="white" shape-rendering="crispEdges"/>
<rect x="4.5" y="0.5" width="195" height="99" rx="7.5" stroke="#E2E5F1" shape-rendering="crispEdges"/>
<path d="M54.4191 48.3708C54.0401 48.7521 53.7499 49.2123 53.569 49.7185C53.3882 50.2248 53.3213 50.7647 53.373 51.2998L53.355 51.2818C53.4082 51.9117 53.3232 52.5455 53.1061 53.1392C52.889 53.7328 52.5451 54.2719 52.0982 54.7189C51.6512 55.1658 51.112 55.5099 50.5183 55.7269C49.9247 55.944 49.2908 56.029 48.661 55.9758L48.6791 55.9938C47.9257 55.9237 47.1689 56.0876 46.512 56.4633C45.8552 56.839 45.3302 57.4081 45.0087 58.0931C44.6872 58.7781 44.5847 59.5455 44.7153 60.2909C44.846 61.0362 45.2033 61.7231 45.7386 62.2579C46.2739 62.7927 46.9611 63.1494 47.7065 63.2793C48.452 63.4093 49.2193 63.3061 49.904 62.984C50.5887 62.6618 51.1573 62.1364 51.5324 61.4792C51.9075 60.822 52.0708 60.0652 52 59.3118L52.019 59.3298C51.9658 58.7 52.0507 58.0661 52.2678 57.4724C52.4849 56.8788 52.829 56.3397 53.2759 55.8927C53.7229 55.4458 54.262 55.1017 54.8556 54.8847C55.4494 54.6676 56.0831 54.5826 56.713 54.6358L56.694 54.6178C57.3095 54.6731 57.929 54.5722 58.4951 54.3244C59.0611 54.0766 59.5554 53.6899 59.9322 53.2002C60.309 52.7105 60.5562 52.1335 60.6507 51.5229C60.7451 50.9122 60.684 50.2876 60.4727 49.7068C60.2615 49.1261 59.9071 48.6081 59.4424 48.2008C58.9777 47.7935 58.4178 47.5101 57.8144 47.3769C57.2109 47.2437 56.5837 47.2649 55.9907 47.4386C55.3976 47.6124 54.8582 47.933 54.4221 48.3708H54.4191Z" fill="#B4B7C9"/>
<path d="M47.0422 53.6362L47.0232 53.6182C47.5585 53.6721 48.0991 53.6064 48.606 53.4258C49.1128 53.2452 49.5732 52.9543 49.9538 52.574C50.3343 52.1937 50.6257 51.7335 50.8066 51.2268C50.9876 50.7201 51.0537 50.1796 51.0002 49.6442L51.0192 49.6622C50.966 49.0323 51.051 48.3985 51.268 47.8048C51.4851 47.2112 51.8292 46.6721 52.2761 46.2251C52.7231 45.7782 53.2622 45.4341 53.8558 45.2171C54.4495 45 55.0833 44.9151 55.7132 44.9682L55.6942 44.9502C56.4477 45.021 57.2046 44.8576 57.8618 44.4823C58.5191 44.1071 59.0445 43.5382 59.3665 42.8533C59.6885 42.1685 59.7914 41.4009 59.6612 40.6554C59.531 39.9099 59.174 39.2228 58.6388 38.6876C58.1037 38.1525 57.4165 37.7954 56.671 37.6652C55.9255 37.535 55.158 37.6379 54.4731 37.9599C53.7882 38.2819 53.2194 38.8074 52.8441 39.4646C52.4688 40.1218 52.3054 40.8788 52.3762 41.6322L52.3582 41.6132C52.4115 42.2431 52.3267 42.8771 52.1097 43.4708C51.8927 44.0645 51.5486 44.6037 51.1017 45.0507C50.6547 45.4976 50.1155 45.8417 49.5218 46.0587C48.928 46.2757 48.2941 46.3605 47.6642 46.3072L47.6822 46.3262C47.1469 46.2723 46.6062 46.338 46.0994 46.5186C45.5926 46.6991 45.1322 46.9901 44.7516 47.3704C44.371 47.7507 44.0797 48.2109 43.8987 48.7176C43.7178 49.2243 43.6517 49.7648 43.7052 50.3002L43.6872 50.2822C43.7402 50.912 43.6551 51.5458 43.438 52.1394C43.2208 52.7329 42.8768 53.272 42.4299 53.7189C41.9829 54.1658 41.4439 54.5098 40.8503 54.727C40.2568 54.9441 39.623 55.0292 38.9932 54.9762L39.0112 54.9942C38.2577 54.9234 37.5007 55.0868 36.8435 55.4621C36.1863 55.8374 35.6608 56.4062 35.3388 57.0911C35.0168 57.776 34.9139 58.5435 35.0441 59.289C35.1744 60.0345 35.5314 60.7217 36.0665 61.2568C36.6017 61.792 37.2888 62.149 38.0344 62.2792C38.7799 62.4094 39.5474 62.3065 40.2323 61.9845C40.9171 61.6625 41.486 61.1371 41.8613 60.4799C42.2366 59.8226 42.4 59.0657 42.3292 58.3122L42.3482 58.3302C42.295 57.7003 42.38 57.0665 42.5971 56.4728C42.8141 55.8792 43.1582 55.3401 43.6051 54.8931C44.0521 54.4462 44.5912 54.1021 45.1848 53.8851C45.7785 53.668 46.4123 53.583 47.0422 53.6362Z" fill="#B4B7C9"/>
<path d="M40.3402 51.6289C40.7192 51.2477 41.0094 50.7875 41.1901 50.2812C41.3707 49.7749 41.4373 49.2349 41.3852 48.6999L41.4042 48.7179C41.351 48.0879 41.436 47.4538 41.6532 46.86C41.8704 46.2662 42.2146 45.727 42.6618 45.28C43.109 44.8331 43.6483 44.4891 44.2422 44.2721C44.8361 44.0552 45.4702 43.9705 46.1002 44.0239L46.0812 44.0059C46.8344 44.0765 47.5911 43.913 48.248 43.5378C48.9049 43.1625 49.43 42.5938 49.7519 41.9092C50.0737 41.2245 50.1765 40.4573 50.0463 39.712C49.9161 38.9668 49.5591 38.2799 49.0242 37.7449C48.4893 37.21 47.8023 36.8531 47.0571 36.7229C46.3119 36.5926 45.5446 36.6954 44.86 37.0173C44.1753 37.3391 43.6066 37.8643 43.2314 38.5212C42.8561 39.1781 42.6926 39.9347 42.7632 40.6879L42.7452 40.6699C42.7984 41.2998 42.7134 41.9337 42.4963 42.5273C42.2792 43.1209 41.9352 43.66 41.4883 44.107C41.0413 44.554 40.5022 44.898 39.9086 45.115C39.3149 45.3321 38.6811 45.4171 38.0512 45.3639L38.0692 45.3819C37.4538 45.3267 36.8344 45.4278 36.2684 45.6757C35.7024 45.9236 35.2082 46.3104 34.8315 46.8002C34.4547 47.2899 34.2078 47.8669 34.1134 48.4775C34.019 49.0882 34.0803 49.7128 34.2916 50.2934C34.5028 50.8741 34.8573 51.392 35.322 51.7992C35.7867 52.2065 36.3467 52.4898 36.9501 52.623C37.5535 52.7561 38.1807 52.7348 38.7737 52.5611C39.3666 52.3873 39.9061 52.0667 40.3422 51.6289H40.3402Z" fill="#B4B7C9"/>
<path d="M71.3174 41.6553H74.2874V56.1083H71.3174V41.6553Z" fill="#B4B7C9"/>
<path d="M75.9689 51.1591C75.9648 50.1205 76.269 49.1039 76.843 48.2383C77.417 47.3727 78.235 46.6969 79.1934 46.2966C80.1518 45.8962 81.2074 45.7893 82.2266 45.9894C83.2458 46.1895 84.1827 46.6875 84.9186 47.4205C85.6545 48.1534 86.1563 49.0883 86.3605 50.1067C86.5647 51.1251 86.462 52.1812 86.0655 53.1412C85.669 54.1011 84.9965 54.9219 84.1332 55.4993C83.2698 56.0768 82.2546 56.3851 81.2159 56.3851C80.5265 56.393 79.8424 56.2633 79.2036 56.0037C78.5648 55.7441 77.9842 55.3598 77.4957 54.8733C77.0071 54.3867 76.6205 53.8076 76.3584 53.1699C76.0962 52.5322 75.9638 51.8486 75.9689 51.1591ZM83.4929 51.1591C83.4805 50.7114 83.3364 50.2773 83.0787 49.911C82.8209 49.5448 82.4609 49.2626 82.0437 49.0999C81.6264 48.9371 81.1705 48.9009 80.7328 48.9959C80.2951 49.0909 79.8951 49.3127 79.5828 49.6338C79.2706 49.9548 79.0598 50.3608 78.9771 50.801C78.8943 51.2411 78.943 51.6959 79.1173 52.1085C79.2916 52.5211 79.5836 52.8731 79.9568 53.1206C80.3301 53.3681 80.7681 53.5001 81.2159 53.5001C81.5226 53.5083 81.8277 53.4528 82.112 53.3372C82.3962 53.2216 82.6534 53.0484 82.8673 52.8285C83.0812 52.6085 83.2473 52.3466 83.3549 52.0593C83.4626 51.772 83.5096 51.4655 83.4929 51.1591Z" fill="#B4B7C9"/>
<path d="M98.2999 46.2088V55.6088C98.2999 58.9348 95.7059 60.3408 93.0729 60.3408C92.1459 60.4102 91.2176 60.2229 90.3899 59.7996C89.5623 59.3762 88.8672 58.7331 88.3809 57.9408L90.9149 56.4758C91.1193 56.8888 91.445 57.2295 91.8483 57.4524C92.2517 57.6752 92.7135 57.7696 93.1719 57.7228C93.4649 57.7634 93.7633 57.7376 94.045 57.6473C94.3266 57.557 94.5844 57.4045 94.7992 57.2012C95.014 56.9978 95.1803 56.7488 95.2859 56.4724C95.3914 56.1961 95.4334 55.8996 95.4089 55.6048V54.6998C95.0611 55.1253 94.6185 55.4634 94.1164 55.6869C93.6143 55.9104 93.0669 56.0131 92.5179 55.9868C91.2117 55.9456 89.9728 55.3978 89.0634 54.4592C88.154 53.5207 87.6455 52.2651 87.6455 50.9583C87.6455 49.6515 88.154 48.3959 89.0634 47.4574C89.9728 46.5188 91.2117 45.971 92.5179 45.9298C93.0669 45.9035 93.6143 46.0062 94.1164 46.2297C94.6185 46.4532 95.0611 46.7913 95.4089 47.2168V46.2068L98.2999 46.2088ZM95.4099 50.9598C95.4299 50.4812 95.3061 50.0075 95.0546 49.5998C94.8031 49.192 94.4353 48.8689 93.9986 48.672C93.5619 48.475 93.0763 48.4133 92.6042 48.4947C92.1321 48.5761 91.6952 48.7969 91.3496 49.1288C91.0041 49.4606 90.7658 49.8882 90.6653 50.3566C90.5649 50.825 90.6069 51.3128 90.7861 51.7571C90.9652 52.2014 91.2732 52.582 91.6704 52.8498C92.0676 53.1176 92.5359 53.2604 93.0149 53.2598C93.327 53.2816 93.6401 53.2378 93.9342 53.1312C94.2283 53.0246 94.4968 52.8575 94.7224 52.6409C94.948 52.4242 95.1258 52.1627 95.2442 51.8731C95.3626 51.5836 95.4191 51.2725 95.4099 50.9598Z" fill="#B4B7C9"/>
<path d="M99.9816 51.1591C99.9775 50.1205 100.282 49.1039 100.856 48.2383C101.43 47.3727 102.248 46.6969 103.206 46.2966C104.164 45.8962 105.22 45.7893 106.239 45.9894C107.258 46.1895 108.195 46.6875 108.931 47.4205C109.667 48.1534 110.169 49.0883 110.373 50.1067C110.577 51.1251 110.475 52.1812 110.078 53.1412C109.682 54.1011 109.009 54.9219 108.146 55.4993C107.282 56.0768 106.267 56.3851 105.229 56.3851C104.539 56.393 103.855 56.2633 103.216 56.0037C102.577 55.7441 101.997 55.3598 101.508 54.8733C101.02 54.3867 100.633 53.8076 100.371 53.1699C100.109 52.5322 99.9765 51.8486 99.9816 51.1591ZM107.506 51.1591C107.493 50.7114 107.349 50.2773 107.091 49.911C106.834 49.5448 106.474 49.2626 106.056 49.0999C105.639 48.9371 105.183 48.9009 104.745 48.9959C104.308 49.0909 103.908 49.3127 103.595 49.6338C103.283 49.9548 103.072 50.3608 102.99 50.801C102.907 51.2411 102.956 51.6959 103.13 52.1085C103.304 52.5211 103.596 52.8731 103.969 53.1206C104.343 53.3681 104.781 53.5001 105.229 53.5001C105.535 53.5083 105.84 53.4528 106.125 53.3372C106.409 53.2216 106.666 53.0484 106.88 52.8285C107.094 52.6085 107.26 52.3466 107.368 52.0593C107.475 51.772 107.522 51.4655 107.506 51.1591Z" fill="#B4B7C9"/>
<path d="M111.861 43.5559C111.861 43.2035 111.966 42.8589 112.162 42.5659C112.357 42.2729 112.636 42.0444 112.961 41.9096C113.287 41.7747 113.645 41.7394 113.991 41.8082C114.337 41.8769 114.654 42.0466 114.903 42.2959C115.153 42.5451 115.322 42.8626 115.391 43.2083C115.46 43.5539 115.425 43.9122 115.29 44.2379C115.155 44.5635 114.926 44.8418 114.633 45.0376C114.34 45.2334 113.996 45.3379 113.643 45.3379C113.172 45.3332 112.722 45.144 112.388 44.8108C112.055 44.4776 111.866 44.0271 111.861 43.5559ZM112.161 46.2089H115.132V56.1089H112.157L112.161 46.2089Z" fill="#B4B7C9"/>
<path d="M127.956 51.1593C127.99 51.8136 127.895 52.4682 127.675 53.0855C127.456 53.7028 127.116 54.2706 126.676 54.7563C126.237 55.2419 125.705 55.6359 125.113 55.9155C124.52 56.195 123.878 56.3547 123.224 56.3853C122.673 56.4153 122.123 56.3225 121.613 56.1136C121.103 55.9046 120.646 55.5848 120.275 55.1773V60.0683H117.305V46.2093H120.275V47.1393C120.646 46.7321 121.103 46.4125 121.613 46.2038C122.123 45.995 122.673 45.9023 123.224 45.9323C123.878 45.9628 124.52 46.1224 125.113 46.402C125.706 46.6816 126.237 47.0756 126.677 47.5614C127.117 48.0472 127.456 48.6152 127.676 49.2327C127.895 49.8501 127.99 50.5049 127.956 51.1593ZM124.986 51.1593C124.974 50.696 124.826 50.2464 124.56 49.8667C124.294 49.4871 123.922 49.1943 123.491 49.0251C123.059 48.8558 122.588 48.8175 122.135 48.9151C121.681 49.0126 121.267 49.2416 120.944 49.5734C120.62 49.9053 120.402 50.3251 120.315 50.7806C120.229 51.236 120.279 51.7066 120.46 52.1337C120.64 52.5608 120.942 52.9252 121.328 53.1815C121.714 53.4377 122.167 53.5744 122.631 53.5743C122.949 53.5885 123.266 53.5352 123.563 53.418C123.859 53.3009 124.127 53.1224 124.349 52.8944C124.572 52.6663 124.743 52.3939 124.853 52.0949C124.963 51.7959 125.008 51.477 124.986 51.1593Z" fill="#B4B7C9"/>
<path d="M137.121 53.1379C137.121 55.4149 135.142 56.3849 133.004 56.3849C132.14 56.4631 131.273 56.2805 130.514 55.8604C129.755 55.4404 129.14 54.8024 128.747 54.0289L131.32 52.5639C131.424 52.9214 131.648 53.2325 131.953 53.445C132.259 53.6576 132.629 53.7589 133 53.7319C133.712 53.7319 134.069 53.5139 134.069 53.1189C134.069 52.0289 129.198 52.6039 129.198 49.1789C129.198 47.0199 131.02 45.9319 133.079 45.9319C133.853 45.9074 134.619 46.091 135.298 46.4635C135.977 46.8361 136.544 47.3839 136.939 48.0499L134.405 49.4159C134.294 49.1566 134.109 48.9357 133.873 48.7808C133.637 48.6259 133.361 48.5439 133.079 48.5449C132.564 48.5449 132.247 48.7449 132.247 49.0989C132.251 50.2279 137.121 49.4749 137.121 53.1379Z" fill="#B4B7C9"/>
<path d="M147.97 46.209V56.109H145V55.178C144.657 55.5888 144.222 55.9125 143.73 56.1225C143.238 56.3325 142.704 56.4228 142.17 56.386C140.17 56.386 138.47 54.961 138.47 52.286V46.209H141.44V51.851C141.415 52.0868 141.442 52.3252 141.519 52.5495C141.595 52.7739 141.72 52.9789 141.884 53.1502C142.048 53.3215 142.247 53.455 142.468 53.5415C142.688 53.628 142.925 53.6654 143.162 53.651C144.251 53.651 145.003 53.018 145.003 51.612V46.212L147.97 46.209Z" fill="#B4B7C9"/>
<path d="M165 50.0297V56.1077H162.03V50.2867C162.03 49.2967 161.555 48.6637 160.605 48.6637C159.615 48.6637 159.06 49.3567 159.06 50.5247V56.1077H156.091V50.2867C156.091 49.2967 155.616 48.6637 154.665 48.6637C153.675 48.6637 153.121 49.3567 153.121 50.5247V56.1077H150.151V46.2077H153.121V47.1177C153.429 46.714 153.833 46.3938 154.296 46.1865C154.76 45.9791 155.268 45.8912 155.774 45.9307C156.282 45.9058 156.788 46.0131 157.243 46.242C157.697 46.4708 158.084 46.8136 158.367 47.2367C158.696 46.794 159.132 46.442 159.634 46.2136C160.136 45.9852 160.688 45.8879 161.238 45.9307C163.511 45.9317 165 47.5547 165 50.0297Z" fill="#B4B7C9"/>
<path d="M167.512 46.1482C168.729 46.1482 169.716 45.1614 169.716 43.9442C169.716 42.727 168.729 41.7402 167.512 41.7402C166.295 41.7402 165.308 42.727 165.308 43.9442C165.308 45.1614 166.295 46.1482 167.512 46.1482Z" fill="#B4B7C9"/>
</g>
<defs>
<filter id="filter0_d_4632_11192" x="0" y="0" width="204" height="108" filterUnits="userSpaceOnUse" color-interpolation-filters="sRGB">
<feFlood flood-opacity="0" result="BackgroundImageFix"/>
<feColorMatrix in="SourceAlpha" type="matrix" values="0 0 0 0 0 0 0 0 0 0 0 0 0 0 0 0 0 0 127 0" result="hardAlpha"/>
<feOffset dy="4"/>
<feGaussianBlur stdDeviation="2"/>
<feComposite in2="hardAlpha" operator="out"/>
<feColorMatrix type="matrix" values="0 0 0 0 0 0 0 0 0 0 0 0 0 0 0 0 0 0 0.25 0"/>
<feBlend mode="normal" in2="BackgroundImageFix" result="effect1_dropShadow_4632_11192"/>
<feBlend mode="normal" in="SourceGraphic" in2="effect1_dropShadow_4632_11192" result="shape"/>
</filter>
</defs>
</svg>
