<svg width="123" height="36" viewBox="0 0 123 36" fill="none" xmlns="http://www.w3.org/2000/svg">
<g filter="url(#filter0_d_4632_11190)">
<path d="M4.94141 27.8248H30.5914V2.1748H4.94141V27.8248ZM25.6544 12.5318H20.2344V7.1118H25.6544V12.5318ZM9.87741 7.1118H15.3004V17.4678H25.6544V22.8878H9.87741V7.1118ZM47.2944 2.1748C44.7578 2.1748 42.2782 2.92698 40.1692 4.33621C38.0601 5.74544 36.4163 7.74844 35.4456 10.0919C34.4749 12.4354 34.221 15.014 34.7158 17.5018C35.2107 19.9896 36.4321 22.2748 38.2257 24.0684C40.0193 25.8621 42.3045 27.0835 44.7923 27.5784C47.2802 28.0732 49.8588 27.8193 52.2023 26.8486C54.5458 25.8779 56.5487 24.2341 57.958 22.125C59.3672 20.0159 60.1194 17.5363 60.1194 14.9998C60.1154 11.5996 58.7629 8.33984 56.3586 5.93555C53.9543 3.53125 50.6946 2.17877 47.2944 2.1748ZM47.2944 22.8878C45.7343 22.8878 44.2092 22.4252 42.912 21.5584C41.6149 20.6917 40.6038 19.4598 40.0068 18.0184C39.4098 16.5771 39.2536 14.9911 39.5579 13.4609C39.8623 11.9308 40.6136 10.5253 41.7167 9.42215C42.8199 8.319 44.2254 7.56773 45.7555 7.26337C47.2856 6.95901 48.8716 7.11522 50.313 7.71224C51.7543 8.30927 52.9863 9.32029 53.853 10.6175C54.7198 11.9146 55.1824 13.4397 55.1824 14.9998C55.1792 17.0909 54.3471 19.0954 52.8685 20.574C51.3899 22.0526 49.3854 22.8846 47.2944 22.8878ZM106.013 2.1748C103.476 2.17461 100.997 2.92661 98.8879 4.33572C96.7787 5.74483 95.1348 7.74776 94.1639 10.0912C93.1931 12.4346 92.9389 15.0134 93.4337 17.5012C93.9284 19.9891 95.1498 22.2744 96.9434 24.0681C98.7369 25.8618 101.022 27.0834 103.51 27.5783C105.997 28.0732 108.576 27.8193 110.92 26.8487C113.263 25.878 115.266 24.2342 116.675 22.1251C118.085 20.016 118.837 17.5364 118.837 14.9998C118.833 11.5998 117.481 8.34016 115.077 5.9359C112.673 3.53163 109.413 2.17904 106.013 2.1748ZM106.013 22.8878C104.453 22.888 102.928 22.4255 101.631 21.5589C100.334 20.6923 99.3223 19.4604 98.7251 18.0191C98.1279 16.5778 97.9716 14.9917 98.2758 13.4615C98.5801 11.9314 99.3313 10.5258 100.434 9.4225C101.538 8.31924 102.943 7.56788 104.473 7.26344C106.003 6.959 107.589 7.11515 109.03 7.71215C110.472 8.30914 111.704 9.32016 112.571 10.6174C113.437 11.9146 113.9 13.4397 113.9 14.9998C113.897 17.0907 113.065 19.095 111.586 20.5736C110.108 22.0522 108.104 22.8844 106.013 22.8878ZM76.6534 2.1748C74.1168 2.1748 71.6372 2.92698 69.5282 4.33621C67.4191 5.74544 65.7753 7.74844 64.8046 10.0919C63.8339 12.4354 63.58 15.014 64.0748 17.5018C64.5697 19.9896 65.7911 22.2748 67.5847 24.0684C69.3783 25.8621 71.6635 27.0835 74.1513 27.5784C76.6391 28.0732 79.2178 27.8193 81.5613 26.8486C83.9048 25.8779 85.9077 24.2341 87.317 22.125C88.7262 20.0159 89.4784 17.5363 89.4784 14.9998C89.4744 11.5996 88.1219 8.33984 85.7176 5.93555C83.3133 3.53125 80.0536 2.17877 76.6534 2.1748ZM76.6534 22.8878C75.1998 22.8885 73.7744 22.4876 72.5343 21.7293C71.2943 20.971 70.2878 19.8849 69.6261 18.5907C68.9645 17.2965 68.6732 15.8446 68.7846 14.3954C68.896 12.9461 69.4056 11.5558 70.2573 10.3779C71.109 9.20006 72.2696 8.28041 73.6109 7.72051C74.9523 7.1606 76.4223 6.98222 77.8586 7.20504C79.295 7.42787 80.6418 8.04324 81.7505 8.98323C82.8592 9.92321 83.6866 11.1513 84.1414 12.5318H76.6534V17.4678H84.1414C83.6205 19.0431 82.6169 20.4145 81.2728 21.3873C79.9288 22.3602 78.3126 22.8851 76.6534 22.8878Z" fill="#B4B7C9"/>
</g>
<defs>
<filter id="filter0_d_4632_11190" x="-2" y="0" width="127" height="38" filterUnits="userSpaceOnUse" color-interpolation-filters="sRGB">
<feFlood flood-opacity="0" result="BackgroundImageFix"/>
<feColorMatrix in="SourceAlpha" type="matrix" values="0 0 0 0 0 0 0 0 0 0 0 0 0 0 0 0 0 0 127 0" result="hardAlpha"/>
<feOffset dy="4"/>
<feGaussianBlur stdDeviation="2"/>
<feComposite in2="hardAlpha" operator="out"/>
<feColorMatrix type="matrix" values="0 0 0 0 0 0 0 0 0 0 0 0 0 0 0 0 0 0 0.25 0"/>
<feBlend mode="normal" in2="BackgroundImageFix" result="effect1_dropShadow_4632_11190"/>
<feBlend mode="normal" in="SourceGraphic" in2="effect1_dropShadow_4632_11190" result="shape"/>
</filter>
</defs>
</svg>
