<svg width="196" height="100" viewBox="0 0 196 100" fill="none" xmlns="http://www.w3.org/2000/svg">
<rect x="0.5" y="0.5" width="195" height="99" rx="7.5" fill="white"/>
<rect x="0.5" y="0.5" width="195" height="99" rx="7.5" stroke="#E2E5F1"/>
<path d="M97.693 57.3744H92.573V43.6864H97.693V57.3744ZM93.073 56.8744H97.193V44.1864H93.073V56.8744ZM104.817 57.3744H99.8V43.6864H110.282C111.784 43.5648 113.279 43.9863 114.496 44.8744C115.02 45.3537 115.426 45.9475 115.683 46.6096C115.939 47.2718 116.039 47.9842 115.975 48.6914C116.05 49.9133 115.661 51.1186 114.886 52.0664C113.969 53.1184 112.443 53.6604 110.351 53.6794C109.824 53.6934 105.875 53.6794 104.82 53.6794L104.817 57.3744ZM100.297 56.8744H104.317V53.1744H104.568C104.619 53.1744 109.746 53.1904 110.339 53.1744C112.288 53.1574 113.689 52.6744 114.508 51.7314C115.198 50.8738 115.54 49.7885 115.468 48.6904C115.53 48.0567 115.444 47.4174 115.219 46.8221C114.993 46.2267 114.634 45.6913 114.168 45.2574C113.04 44.4475 111.659 44.0673 110.275 44.1854H100.3L100.297 56.8744ZM109.22 50.6044H104.283V46.8784H109.253C109.605 46.8297 109.964 46.8708 110.296 46.9979C110.629 47.125 110.923 47.3339 111.153 47.6054C111.362 47.9523 111.46 48.3543 111.435 48.7584C111.454 49.1335 111.373 49.5068 111.2 49.8404C110.963 50.1262 110.656 50.3463 110.309 50.4794C109.963 50.6125 109.588 50.6542 109.22 50.6004V50.6044ZM104.783 50.1044H109.22C110.04 50.1044 110.548 49.9334 110.773 49.5814C110.897 49.3255 110.953 49.0421 110.936 48.7584C110.958 48.4604 110.893 48.1625 110.75 47.9004L110.744 47.8914C110.506 47.5414 110.033 47.3784 109.253 47.3784H104.783V50.1044ZM125.1 57.5764C120.61 57.5764 117.93 56.4614 116.909 54.1684C116.742 53.7255 116.629 53.2642 116.571 52.7944L116.527 52.5064H121.869L121.904 52.7164C121.945 52.9296 122.036 53.1303 122.168 53.3024C122.379 53.5574 123.083 53.9854 125.419 53.9854C128.227 53.9854 128.227 53.4924 128.227 53.2274C128.227 52.7804 127.902 52.6274 125.612 52.3834L125.177 52.3424C124.315 52.2614 123.225 52.1584 122.727 52.1154C118.527 51.7354 116.652 50.4304 116.652 47.8854C116.652 45.2124 119.843 43.4854 124.782 43.4854C128.811 43.4854 131.407 44.5474 132.496 46.6444C132.754 47.1321 132.928 47.6603 133.009 48.2064L133.044 48.4874H127.696L127.674 48.2614C127.653 48.0847 127.578 47.919 127.458 47.7874C127.258 47.5194 126.626 47.0764 124.664 47.0764C122.255 47.0764 121.923 47.3844 121.923 47.7164C121.923 48.1594 122.684 48.3164 125.123 48.5774C126.14 48.6604 127.775 48.8284 128.335 48.8964C131.856 49.2784 133.427 50.5514 133.427 53.0254C133.428 55.1004 131.983 57.5764 125.1 57.5764ZM117.111 53.0064C117.161 53.3362 117.247 53.6594 117.368 53.9704C118.298 56.0594 120.828 57.0764 125.1 57.0764C128.672 57.0764 132.931 56.3764 132.931 53.0254C132.931 50.8324 131.541 49.7464 128.282 49.3934C127.722 49.3254 126.097 49.1584 125.082 49.0744C122.482 48.7924 121.425 48.6424 121.425 47.7164C121.425 46.7584 122.564 46.5764 124.666 46.5764C126.327 46.5764 127.4 46.8764 127.855 47.4814C127.979 47.6304 128.073 47.8023 128.131 47.9874H132.465C132.378 47.6006 132.24 47.227 132.055 46.8764C131.055 44.9574 128.612 43.9854 124.784 43.9854C120.149 43.9854 117.154 45.5164 117.154 47.8854C117.154 50.1454 118.835 51.2614 122.773 51.6174C123.273 51.6604 124.362 51.7634 125.226 51.8454L125.664 51.8864C127.791 52.1104 128.729 52.2504 128.729 53.2274C128.729 54.2794 127.516 54.4854 125.421 54.4854C123.483 54.4854 122.259 54.1944 121.786 53.6214C121.64 53.4387 121.53 53.23 121.462 53.0064H117.111ZM142.927 57.5594C137.707 57.5594 134.827 55.4484 134.827 51.6144V43.6864H139.879V51.6144C139.879 52.9294 141.056 53.6834 143.107 53.6834C145.067 53.6834 146.284 52.8964 146.284 51.6314V43.6864H151.284V52.0344C151.289 55.5454 148.24 57.5594 142.924 57.5594H142.927ZM135.327 44.1864V51.6144C135.327 56.3524 140.085 57.0594 142.927 57.0594C145.865 57.0594 150.792 56.4064 150.792 52.0344V44.1864H146.792V51.6314C146.792 53.1814 145.348 54.1834 143.115 54.1834C140.781 54.1834 139.387 53.2234 139.387 51.6144V44.1864H135.327ZM172.472 57.3744H167.704V51.1944L165 57.3744H160.841L158.165 51.2064V57.3744H153.38V43.6864H159.674L162.944 51.2334L166.372 43.6864H172.478L172.472 57.3744ZM168.204 56.8744H171.972V44.1864H166.69L162.928 52.4654L159.342 44.1864H153.876V56.8744H157.661V48.8004L161.161 56.8774H164.661L168.198 48.8124L168.204 56.8744ZM28.054 43.9364H23.5V57.1244H36.084V53.6134H28.054V43.9364ZM45.276 43.6364C39.463 43.6364 36.406 46.3914 36.406 50.4364C36.406 55.0064 39.615 57.3244 45.276 57.3244C51.508 57.3244 54.129 54.6364 54.129 50.4364C54.129 46.1714 51.172 43.6344 45.276 43.6344V43.6364ZM45.259 47.0634C45.6547 47.0615 46.0502 47.0845 46.443 47.1324L41.352 52.2234C41.1111 51.6785 40.9936 51.087 41.008 50.4914C41.008 48.4224 42.05 47.0614 45.259 47.0614V47.0634ZM45.276 53.9514C44.8947 53.9531 44.5137 53.9317 44.135 53.8874L49.235 48.7874C49.4669 49.3233 49.5779 49.9037 49.56 50.4874C49.56 52.5004 48.6 53.9494 45.276 53.9494V53.9514ZM63.152 52.1514H67.839C67.77 52.4767 67.6262 52.7814 67.419 53.0414C66.4473 53.833 65.2072 54.2182 63.958 54.1164C63.3292 54.1837 62.6934 54.115 62.0935 53.915C61.4936 53.7151 60.9436 53.3885 60.481 52.9574C60.0071 52.2623 59.782 51.4275 59.842 50.5884C59.7653 49.7091 60.0101 48.8319 60.531 48.1194C61.186 47.3794 62.295 47.0604 63.925 47.0604C64.9621 46.9745 65.9979 47.2408 66.865 47.8164C67.1383 48.0334 67.3426 48.3253 67.453 48.6564H71.8C71.7684 48.1108 71.6372 47.5757 71.413 47.0774C70.372 44.9604 67.952 43.7004 63.837 43.7004C60.258 43.7004 57.856 44.7924 56.529 46.4394C55.6526 47.6287 55.2027 49.0788 55.252 50.5554C55.1953 52.0654 55.6336 53.5525 56.5 54.7904C57.811 56.4904 60.146 57.3264 62.952 57.3264C64.8175 57.4565 66.6703 56.934 68.193 55.8484L68.311 57.1244H71.922V49.3124H63.152V52.1514ZM82.171 43.6334C76.359 43.6334 73.301 46.3884 73.301 50.4334C73.301 55.0034 76.509 57.3214 82.171 57.3214C88.404 57.3214 91.025 54.6334 91.025 50.4334C91.025 46.1714 88.068 43.6344 82.171 43.6344V43.6334ZM82.155 47.0604C82.5403 47.0592 82.9253 47.0813 83.308 47.1264L78.237 52.2004C78.0036 51.6615 77.89 51.0785 77.904 50.4914C77.9 48.4224 78.946 47.0614 82.155 47.0614V47.0604ZM82.171 53.9484C81.7796 53.9501 81.3885 53.9273 81 53.8804L86.117 48.7624C86.3577 49.3054 86.4729 49.8957 86.454 50.4894C86.456 52.5004 85.5 53.9494 82.171 53.9494V53.9484Z" fill="#B4B7C9"/>
</svg>
