<svg width="68" height="68" viewBox="0 0 68 68" fill="none" xmlns="http://www.w3.org/2000/svg">
<g filter="url(#filter0_d_4634_10139)">
<rect x="4" width="60" height="60" rx="8" fill="#6366F1" fill-opacity="0.08" shape-rendering="crispEdges"/>
<g clip-path="url(#clip0_4634_10139)">
<path d="M42.1484 30.055C40.3391 30.055 38.8672 31.527 38.8672 33.3363C38.8672 35.1456 40.3391 36.6175 42.1484 36.6175H46.7968C46.8154 36.6175 46.8335 36.6157 46.8518 36.6147C46.8699 36.6156 46.8878 36.6175 46.9062 36.6175C47.5103 36.6175 47.9999 36.1278 47.9999 35.5237V26.9378C47.9999 25.4817 47.2843 24.1902 46.1868 23.3946L42.4659 17.2904C42.3142 17.0415 42.0693 16.8634 41.7857 16.7958C41.5021 16.7281 41.2033 16.7765 40.9555 16.9302L38.2115 18.6318L36.974 16.5376C36.8252 16.2858 36.5818 16.1042 36.2982 16.0331C36.0145 15.962 35.7141 16.0075 35.4643 16.1593L24.9278 22.5628H23.2812C22.6873 22.5628 22.2024 22.0869 22.1878 21.4964C22.2024 20.9059 22.6873 20.43 23.2812 20.43H25.3047C25.9088 20.43 26.3984 19.9403 26.3984 19.3362C26.3984 18.7322 25.9088 18.2425 25.3047 18.2425H23.2812C21.7337 18.2425 20.4331 19.3195 20.0891 20.7633C20.0319 20.896 20 21.042 20 21.1956V21.4691V21.5237V39.6253C20 42.0376 21.9626 44.0003 24.375 44.0003H43.625C45.5111 44.0003 47.1793 42.7987 47.7758 41.0104C47.967 40.4374 47.6574 39.8179 47.0844 39.6268C46.5114 39.4357 45.8919 39.7452 45.7007 40.3182C45.4025 41.2121 44.5684 41.8128 43.625 41.8128H24.375C23.1688 41.8128 22.1875 40.8315 22.1875 39.6253V24.5627C22.5298 24.6841 22.8979 24.7503 23.2812 24.7503H43.625C44.8311 24.7503 45.8125 25.7316 45.8125 26.9378V30.055H42.1484ZM45.8125 34.43H42.1484C41.5453 34.43 41.0546 33.9394 41.0546 33.3362C41.0546 32.7331 41.5453 32.2425 42.1484 32.2425H45.8125V34.43ZM29.1398 22.5629L35.6541 18.6039L36.8188 20.5749C36.8411 20.6287 36.8668 20.6818 36.8986 20.733C36.9224 20.7714 36.9487 20.8071 36.9762 20.8414L37.9934 22.5629H29.1398ZM40.5343 22.5628L39.3246 20.5155L41.1717 19.3701L43.1179 22.5628H40.5343Z" fill="url(#paint0_linear_4634_10139)"/>
</g>
</g>
<defs>
<filter id="filter0_d_4634_10139" x="0" y="0" width="68" height="68" filterUnits="userSpaceOnUse" color-interpolation-filters="sRGB">
<feFlood flood-opacity="0" result="BackgroundImageFix"/>
<feColorMatrix in="SourceAlpha" type="matrix" values="0 0 0 0 0 0 0 0 0 0 0 0 0 0 0 0 0 0 127 0" result="hardAlpha"/>
<feOffset dy="4"/>
<feGaussianBlur stdDeviation="2"/>
<feComposite in2="hardAlpha" operator="out"/>
<feColorMatrix type="matrix" values="0 0 0 0 0 0 0 0 0 0 0 0 0 0 0 0 0 0 0.25 0"/>
<feBlend mode="normal" in2="BackgroundImageFix" result="effect1_dropShadow_4634_10139"/>
<feBlend mode="normal" in="SourceGraphic" in2="effect1_dropShadow_4634_10139" result="shape"/>
</filter>
<linearGradient id="paint0_linear_4634_10139" x1="20" y1="30.0673" x2="47.9999" y2="30.0673" gradientUnits="userSpaceOnUse">
<stop stop-color="#6366F1"/>
<stop offset="0.5" stop-color="#8B5CF6"/>
<stop offset="1" stop-color="#D946EF"/>
</linearGradient>
<clipPath id="clip0_4634_10139">
<rect width="28" height="28" fill="white" transform="translate(20 16)"/>
</clipPath>
</defs>
</svg>
